<?xml version="1.0" encoding="iso-8859-1"?>
<!-- Generator: Adobe Illustrator 19.0.0, SVG Export Plug-In . SVG Version: 6.00 Build 0)  -->
<svg version="1.1" id="Capa_1" xmlns="http://www.w3.org/2000/svg" xmlns:xlink="http://www.w3.org/1999/xlink" x="0px" y="0px"
	 viewBox="0 0 512 512" style="enable-background:new 0 0 512 512;" xml:space="preserve">
<g>
	<g>
		<path fill="white" d="M467,0H317c-24.814,0-45,20.186-45,45v120c0,24.814,20.186,45,45,45h15v45c0,13.376,16.224,19.987,25.605,10.605
			L413.211,210H467c24.814,0,45-20.186,45-45V45C512,20.186,491.814,0,467,0z M447.605,85.605l-60,60
			c-5.86,5.86-15.351,5.86-21.211,0l-30-30c-5.859-5.859-5.859-15.352,0-21.211c5.859-5.859,15.352-5.859,21.211,0L377,113.789
			l49.395-49.395c5.859-5.859,15.352-5.859,21.211,0S453.465,79.746,447.605,85.605z"/>
	</g>
</g>
<g>
	<g>
		<path fill="white" d="M425.6,240l-46.8,46.8C350.6,315,302,295.201,302,255v-16.5c-34.2-6.901-60-37.199-60-73.5V30H45C20.099,30,0,50.099,0,75
			v254.801h61V301c0-33.9,19.2-62.999,46.8-78.6C97.599,211.601,91,197.199,91,181c0-32.999,27.001-60,60-60
			c32.999,0,60,27.001,60,60c0,16.199-6.599,30.6-16.8,41.4c27.6,15.601,46.8,44.7,46.8,78.6v28.801h241V240H425.6z"/>
	</g>
</g>
<g>
	<g>
		<path fill="white" d="M151,241c-33.091,0-60,26.909-60,60v28.755h120V301C211,267.909,184.091,241,151,241z"/>
	</g>
</g>
<g>
	<g>
		<path fill="white" d="M0,360.155V376c0,24.814,20.186,45,45,45h130.194l-19.999,61H106c-8.291,0-15,6.709-15,15c0,8.291,6.709,15,15,15h270
			c8.291,0,15-6.709,15-15c0-8.291-6.709-15-15-15h-49.195l-19.999-61H437c24.814,0,45-20.186,45-45v-15.845H0z"/>
	</g>
</g>
<g>
	<g>
		<path fill="white" d="M151,151c-16.538,0-30,13.462-30,30c0,16.538,13.462,30,30,30c16.538,0,30-13.462,30-30C181,164.462,167.538,151,151,151z
			"/>
	</g>
</g>
<g>
</g>
<g>
</g>
<g>
</g>
<g>
</g>
<g>
</g>
<g>
</g>
<g>
</g>
<g>
</g>
<g>
</g>
<g>
</g>
<g>
</g>
<g>
</g>
<g>
</g>
<g>
</g>
<g>
</g>
</svg>
